<svg xmlns="http://www.w3.org/2000/svg" width="655.385" height="494.15" viewBox="0 0 655.385 494.15">
    <g id="Group_5" data-name="Group 5" transform="translate(67.146 23)">
        <path id="Path_226" data-name="Path 226" d="M333.732,626.165c2.431-19.55,14.548-38.813,33.193-45.176a90.77,90.77,0,0,0,0,62.32c2.865,7.75,6.859,16.071,4.164,23.882-1.677,4.86-5.779,8.578-10.364,10.9s-9.674,3.433-14.7,4.519l-.989.818C337.063,665.418,331.3,645.715,333.732,626.165Z" transform="translate(-218.411 -214.425)" fill="#f0f0f0"/>
        <path id="Path_227" data-name="Path 227" d="M367.11,581.359a77.584,77.584,0,0,0-19.287,43.664,33.41,33.41,0,0,0,.38,10.461,19.163,19.163,0,0,0,4.766,8.888c2.148,2.36,4.619,4.526,6.156,7.367a11.733,11.733,0,0,1,.573,9.578c-1.357,3.892-4.032,7.065-6.755,10.076-3.024,3.344-6.217,6.769-7.5,11.2-.156.537-.98.264-.825-.272,2.236-7.712,9.723-12.093,13.293-19.039,1.666-3.241,2.365-7,.8-10.426-1.366-2.992-3.912-5.227-6.107-7.6a20.447,20.447,0,0,1-4.984-8.517,30.889,30.889,0,0,1-.781-10.408,75.27,75.27,0,0,1,5.5-22.874,78.961,78.961,0,0,1,14.2-22.753c.371-.416.943.238.575.651Z" transform="translate(-222.055 -214.425)" fill="#fff"/>
        <path id="Path_228" data-name="Path 228" d="M348.057,619.769a11.64,11.64,0,0,1-8.86-12.193c.044-.557.912-.514.867.043a10.779,10.779,0,0,0,8.265,11.326c.544.129.268.953-.272.825Z" transform="translate(-217.941 -214.425)" fill="#fff"/>
        <path id="Path_229" data-name="Path 229" d="M351.722,643.319A22.436,22.436,0,0,0,361.741,630.4c.158-.537.982-.264.825.272a23.336,23.336,0,0,1-10.453,13.424C351.631,644.38,351.243,643.6,351.722,643.319Z" transform="translate(-223.988 -214.425)" fill="#fff"/>
        <path id="Path_230" data-name="Path 230" d="M356.544,595.945a6.589,6.589,0,0,0,6.244-.317c.478-.292.865.486.391.775a7.383,7.383,0,0,1-6.907.366.449.449,0,0,1-.276-.548.436.436,0,0,1,.548-.276Z" transform="translate(-225.672 -214.425)" fill="#fff"/>
        <path id="Path_231" data-name="Path 231" d="M423.758,615.909c-.293.191-.586.381-.88.579a86.773,86.773,0,0,0-11.095,8.662c-.271.242-.542.491-.806.74a91.476,91.476,0,0,0-19.867,27.2,88.833,88.833,0,0,0-4.866,12.59c-1.8,5.958-3.268,12.561-6.823,17.434a15.236,15.236,0,0,1-1.187,1.466h-32.12c-.073-.037-.146-.066-.22-.1l-1.282.059c.052-.227.11-.462.161-.689.029-.132.066-.264.1-.4.022-.088.044-.176.059-.257.007-.029.015-.059.022-.081.015-.081.037-.154.052-.227q.484-1.968,1-3.935c0-.007,0-.007.007-.015A130.621,130.621,0,0,1,357,650.073c.147-.271.293-.55.454-.821a84.771,84.771,0,0,1,7.614-11.549,74.936,74.936,0,0,1,4.991-5.709,62.316,62.316,0,0,1,15.594-11.681c11.52-6.082,24.857-8.413,37.169-4.7C423.135,615.711,423.443,615.806,423.758,615.909Z" transform="translate(-229.163 -214.425)" fill="#f0f0f0"/>
        <path id="Path_232" data-name="Path 232" d="M423.686,616.316A77.584,77.584,0,0,0,382,639.567,33.412,33.412,0,0,0,376,648.149a19.163,19.163,0,0,0-1.546,9.966c.294,3.178.963,6.394.48,9.588a11.733,11.733,0,0,1-5.309,7.993c-3.427,2.291-7.472,3.213-11.46,3.978-4.427.849-9.039,1.661-12.735,4.427-.448.335-.941-.379-.494-.714,6.429-4.811,15.044-3.8,22.077-7.2,3.282-1.585,6.106-4.169,6.919-7.841.711-3.211.024-6.529-.3-9.744a20.448,20.448,0,0,1,1.148-9.8,30.886,30.886,0,0,1,5.643-8.78,75.273,75.273,0,0,1,18.161-14.954,78.958,78.958,0,0,1,25.035-9.619c.547-.108.61.758.067.866Z" transform="translate(-229.26 -214.425)" fill="#fff"/>
        <path id="Path_233" data-name="Path 233" d="M385.348,635.513a11.64,11.64,0,0,1,.267-15.07c.371-.418,1.038.138.667.557a10.778,10.778,0,0,0-.219,14.019c.356.431-.36.922-.714.495Z" transform="translate(-237.834 -214.425)" fill="#fff"/>
        <path id="Path_234" data-name="Path 234" d="M374.1,656.523a22.436,22.436,0,0,0,15.779-4.285c.449-.333.943.381.494.714a23.336,23.336,0,0,1-16.428,4.425c-.556-.062-.4-.916.155-.854Z" transform="translate(-235.252 -214.425)" fill="#fff"/>
        <path id="Path_235" data-name="Path 235" d="M406.468,621.6a6.589,6.589,0,0,0,5.176,3.506c.557.055.4.909-.155.854a7.383,7.383,0,0,1-5.735-3.866.449.449,0,0,1,.11-.6.436.436,0,0,1,.6.11Z" transform="translate(-249.047 -214.425)" fill="#fff"/>
        <path id="Path_236" data-name="Path 236" d="M911.84,633.079c-2.1-16.9-12.577-33.555-28.7-39.055a78.472,78.472,0,0,1,0,53.876c-2.477,6.7-5.929,13.894-3.6,20.646,1.45,4.2,5,7.416,8.96,9.426s8.364,2.968,12.708,3.907l.855.707C908.96,667.013,913.942,649.98,911.84,633.079Z" transform="translate(-483.238 -214.425)" fill="#f0f0f0"/>
        <path id="Path_237" data-name="Path 237" d="M882.984,594.343a67.072,67.072,0,0,1,16.674,37.748,28.884,28.884,0,0,1-.329,9.044,16.566,16.566,0,0,1-4.12,7.684c-1.857,2.04-3.993,3.912-5.322,6.369a10.144,10.144,0,0,0-.5,8.281c1.173,3.365,3.485,6.107,5.84,8.711,2.614,2.891,5.375,5.852,6.486,9.684.135.464.847.228.713-.235-1.933-6.667-8.406-10.455-11.492-16.46-1.44-2.8-2.045-6.055-.695-9.013,1.181-2.587,3.382-4.519,5.28-6.569a17.677,17.677,0,0,0,4.309-7.363,26.7,26.7,0,0,0,.675-9,65.073,65.073,0,0,0-4.752-19.775,68.26,68.26,0,0,0-12.274-19.67c-.321-.359-.816.206-.5.563Z" transform="translate(-479.768 -214.425)" fill="#fff"/>
        <path id="Path_238" data-name="Path 238" d="M899.456,627.549a10.063,10.063,0,0,0,7.66-10.541.376.376,0,0,0-.75.038,9.318,9.318,0,0,1-7.145,9.791c-.47.112-.232.824.235.713Z" transform="translate(-570.407 -214.425)" fill="#fff"/>
        <path id="Path_239" data-name="Path 239" d="M896.288,647.909a19.4,19.4,0,0,1-8.661-11.17c-.136-.464-.849-.228-.713.235a20.175,20.175,0,0,0,9.036,11.605c.416.247.752-.425.338-.67Z" transform="translate(-477.865 -214.425)" fill="#fff"/>
        <path id="Path_240" data-name="Path 240" d="M892.119,606.953a5.7,5.7,0,0,1-5.4-.274c-.413-.252-.748.42-.338.671a6.383,6.383,0,0,0,5.971.316.388.388,0,0,0,.239-.474.377.377,0,0,0-.474-.239Z" transform="translate(-476.335 -214.425)" fill="#fff"/>
        <path id="Path_241" data-name="Path 241" d="M834.011,624.212c.253.165.507.329.76.5a75.012,75.012,0,0,1,9.592,7.488c.234.209.469.424.7.64a79.084,79.084,0,0,1,17.175,23.511,76.794,76.794,0,0,1,4.207,10.884c1.552,5.151,2.826,10.859,5.9,15.072a13.175,13.175,0,0,0,1.026,1.267h27.768c.063-.032.127-.057.19-.089l1.109.051c-.045-.2-.095-.4-.14-.6-.025-.114-.057-.228-.082-.342-.019-.076-.038-.152-.051-.222-.006-.025-.013-.051-.019-.07-.013-.07-.032-.133-.045-.2q-.418-1.7-.862-3.4c0-.006,0-.006-.006-.013a112.923,112.923,0,0,0-9.5-24.949c-.127-.234-.253-.475-.393-.71a73.282,73.282,0,0,0-6.583-9.985,64.779,64.779,0,0,0-4.314-4.935,53.876,53.876,0,0,0-13.482-10.1c-9.959-5.258-21.489-7.273-32.133-4.061C834.55,624.041,834.284,624.123,834.011,624.212Z" transform="translate(-474.919 -214.425)" fill="#f0f0f0"/>
        <path id="Path_242" data-name="Path 242" d="M834.074,624.565a67.073,67.073,0,0,1,36.041,20.1,28.885,28.885,0,0,1,5.183,7.419,16.566,16.566,0,0,1,1.336,8.616c-.254,2.747-.833,5.528-.415,8.289a10.144,10.144,0,0,0,4.59,6.91c2.962,1.98,6.46,2.778,9.907,3.439,3.828.734,7.815,1.436,11.009,3.827.387.29.814-.328.427-.617-5.558-4.16-13.006-3.287-19.086-6.223-2.837-1.37-5.278-3.6-5.981-6.778-.615-2.776-.021-5.644.261-8.423a17.676,17.676,0,0,0-.993-8.473,26.7,26.7,0,0,0-4.878-7.591,65.071,65.071,0,0,0-15.7-12.928,68.263,68.263,0,0,0-21.643-8.315c-.473-.094-.527.655-.058.748Z" transform="translate(-474.84 -214.425)" fill="#fff"/>
        <path id="Path_243" data-name="Path 243" d="M867.218,641.16a10.063,10.063,0,0,0-.231-13.029c-.32-.361-.9.12-.576.481a9.318,9.318,0,0,1,.19,12.12C866.293,641.1,866.912,641.53,867.218,641.16Z" transform="translate(-465.751 -214.425)" fill="#fff"/>
        <path id="Path_244" data-name="Path 244" d="M876.946,659.324a19.4,19.4,0,0,1-13.641-3.7c-.388-.288-.815.329-.427.617a20.174,20.174,0,0,0,14.2,3.826C877.561,660.009,877.424,659.271,876.946,659.324Z" transform="translate(-468.27 -214.425)" fill="#fff"/>
        <path id="Path_245" data-name="Path 245" d="M848.959,629.133a5.7,5.7,0,0,1-4.475,3.031c-.481.047-.344.786.134.739a6.383,6.383,0,0,0,4.958-3.342.388.388,0,0,0-.095-.522.377.377,0,0,0-.522.095Z" transform="translate(-456.123 -214.425)" fill="#fff"/>
        <path id="Path_246" data-name="Path 246" d="M969.8,248.57H316.312a.948.948,0,1,1,0-1.9H969.8a.948.948,0,0,1,0,1.9Z" transform="translate(-382.509 -214.425)" fill="#cacaca"/>
        <path id="Path_250" data-name="Path 250" d="M922.854,408.747H841.591a3.828,3.828,0,0,1,0-7.655h81.264a3.828,3.828,0,0,1,0,7.655Z" transform="translate(-485.258 -214.425)" fill="#e4e4e4"/>
        <path id="Path_251" data-name="Path 251" d="M909.752,395.645H854.693a3.828,3.828,0,0,1,0-7.655h55.059a3.828,3.828,0,0,1,0,7.655Z" transform="translate(-481.106 -214.425)" fill="#e4e4e4"/>
        <rect id="Rectangle_609" data-name="Rectangle 609" width="136.578" height="81.887" transform="translate(243.117 223.724)" fill="#f0f0f0"/>
        <path id="Path_252" data-name="Path 252" d="M922.854,557.655H841.591a3.828,3.828,0,0,1,0-7.655h81.264a3.828,3.828,0,0,1,0,7.655Z" transform="translate(-485.258 -214.425)" fill="#e4e4e4"/>
        <path id="Path_253" data-name="Path 253" d="M909.752,544.553H854.693a3.828,3.828,0,1,1,0-7.655h55.059a3.828,3.828,0,0,1,0,7.655Z" transform="translate(-481.106 -214.425)" fill="#e4e4e4"/>
        <path id="Path_254" data-name="Path 254" d="M743.488,346.655H331.225a3.828,3.828,0,0,1,0-7.655H743.488a3.828,3.828,0,0,1,0,7.655Z" transform="translate(-288.066 -214.425)" fill="#e4e4e4"/>
        <path id="Path_255" data-name="Path 255" d="M743.488,375.655H331.225a3.828,3.828,0,0,1,0-7.655H743.488a3.828,3.828,0,0,1,0,7.655Z" transform="translate(-288.066 -214.425)" fill="#e4e4e4"/>
        <path id="Path_256" data-name="Path 256" d="M743.488,404.655H331.225a3.828,3.828,0,0,1,0-7.655H743.488a3.828,3.828,0,0,1,0,7.655Z" transform="translate(-288.066 -214.425)" fill="#e4e4e4"/>
        <path id="Path_257" data-name="Path 257" d="M743.488,433.655H331.225a3.828,3.828,0,0,1,0-7.655H743.488a3.828,3.828,0,0,1,0,7.655Z" transform="translate(-288.066 -214.425)" fill="#e4e4e4"/>
        <path id="Path_258" data-name="Path 258" d="M743.488,491.655H331.225a3.828,3.828,0,0,1,0-7.655H743.488a3.828,3.828,0,0,1,0,7.655Z" transform="translate(-288.066 -214.425)" fill="#e4e4e4"/>
        <path id="Path_259" data-name="Path 259" d="M743.488,520.655H331.225a3.828,3.828,0,0,1,0-7.655H743.488a3.828,3.828,0,0,1,0,7.655Z" transform="translate(-288.066 -214.425)" fill="#e4e4e4"/>
        <path id="Path_260" data-name="Path 260" d="M675.386,317.553H399.327a3.828,3.828,0,0,1,0-7.655H675.386a3.828,3.828,0,0,1,0,7.655Z" transform="translate(-298.075 -214.425)" fill="#e4e4e4"/>
        <path id="Path_261" data-name="Path 261" d="M672.663,462.791h7.97l3.792-30.744H672.662Z" transform="translate(-319.909)" fill="#ffb6b6"/>
        <path id="Path_262" data-name="Path 262" d="M779.13,674.614h15.7a10,10,0,0,1,10,10v.326h-25.7Z" transform="translate(-432.086 -214.425)" fill="#2f2e41"/>
        <path id="Path_263" data-name="Path 263" d="M631.925,462.791h7.97l3.792-30.744H631.923Z" transform="translate(-300.534)" fill="#ffb6b6"/>
        <path id="Path_264" data-name="Path 264" d="M738.392,674.614h15.7a10,10,0,0,1,10,10v.326h-25.7Z" transform="translate(-412.429 -214.425)" fill="#2f2e41"/>
        <path id="Path_265" data-name="Path 265" d="M833.5,334.628a9.053,9.053,0,1,0-17.426,3.439l-18.317,28.979-11.4,22.98,9.41,8.351L803,390.756l23.683-47.366A9.048,9.048,0,0,0,833.5,334.628Z" transform="translate(-443.066 -214.425)" fill="#ffb6b6"/>
        <path id="Path_266" data-name="Path 266" d="M738.442,429.684,720.488,426.9l-4.277,32.481-23.3,50.145a9.057,9.057,0,1,0,12.483,2.9l24.364-44Z" transform="translate(-395.653 -214.425)" fill="#ffb6b6"/>
        <path id="Path_267" data-name="Path 267" d="M748.391,483.794s-15.789,14.6-13.782,51.31l4.423,56.712-1.115,79.054,16.217-1.274L768.3,537.112,781.88,591.43l-4.875,72.357,15.621.362,16.413-81.773-3.89-60.616-6.535-37.967Z" transform="translate(-426.779 -214.425)" fill="#2f2e41"/>
        <path id="Path_268" data-name="Path 268" d="M765.283,398.3l-37.721,10.562,19.18,57.465-2.867,21.984,58.16.377L788.566,446.2s7.559-15.544-1.072-26.439Z" transform="translate(-423.239 -214.425)" fill="#6c63ff"/>
        <path id="Path_269" data-name="Path 269" d="M760.757,407.353l4.526-9.053s-.146-2.275,10.489-3.4l12.478-12.4,11.421,11.383-19.3,28.561Z" transform="translate(-427.626 -214.425)" fill="#6c63ff"/>
        <path id="Path_270" data-name="Path 270" d="M742.651,416.406s-13.579-15.088-21.124-7.544-3.676,31.533-3.676,31.533l23.5,3.646Z" transform="translate(-402.068 -214.425)" fill="#6c63ff"/>
        <path id="Ellipse_358" data-name="Ellipse 358" d="M749.538,358.407c23.126.1,23.124,35.266,0,35.367C726.412,393.67,726.414,358.508,749.538,358.407Z" transform="translate(-412.291 -214.425)" fill="#ffb6b6"/>
        <path id="Path_271" data-name="Path 271" d="M752.113,374.922c3.126,1.841,6.374,3.724,9.98,4.118s7.689-1.123,9.136-4.45a10.267,10.267,0,0,0,.708-3.616,24.036,24.036,0,0,0-6.084-17.224,21.8,21.8,0,0,0-16.727-7.072c-5.975.26-11.5,3.088-16.8,5.856-4.876,2.545-10.025,5.349-12.674,10.169-3.926,7.142-1.064,15.887-.3,24a45.217,45.217,0,0,1-10.9,33.632l32.9,3.118c4,.379,8.088.754,12.013-.122A19.2,19.2,0,0,0,762.5,390.76c-4.67-4.5-12.181-7.68-12.366-14.16" transform="translate(-409.888 -214.425)" fill="#2f2e41"/>
        <path id="Path_272" data-name="Path 272" d="M888.827,462.055H880.1l-4.153-33.672h12.884Z" transform="translate(-461.907)" fill="#9f616a"/>
        <path id="Path_273" data-name="Path 273" d="M999.553,684.942H971.4v-.356a10.957,10.957,0,0,1,10.956-10.956h17.193Z" transform="translate(-570.407 -214.425)" fill="#2f2e41"/>
        <path id="Path_274" data-name="Path 274" d="M970,462.055h-8.73l-4.153-33.672H970Z" transform="translate(-461.907)" fill="#9f616a"/>
        <path id="Path_275" data-name="Path 275" d="M1080.73,684.942h-28.148v-.356a10.957,10.957,0,0,1,10.955-10.956h17.193Z" transform="translate(-570.407 -214.425)" fill="#2f2e41"/>
        <path id="Path_276" data-name="Path 276" d="M993.847,505.6s-7.328,19.889-6.281,28.263-7.327,66.994-6.281,72.228-1.047,31.4,0,35.591-2.938,9.188-.844,13.376,5.031,12.794,5.031,12.794l13.608-1.047,2.094-11.515s6.281-1.047,5.234-7.328,5.234-48.152,5.234-48.152l17.8-58.62,25.123,53.386s1.047,37.684,4.187,41.871-3.14,15.7,0,19.889,6.281,11.515,6.281,11.515h15.7v-8.374s9.421-5.234,0-20.936l-6.366-94.3-6.281-42.918Z" transform="translate(-570.407 -214.425)" fill="#2f2e41"/>
        <circle id="Ellipse_26" data-name="Ellipse 26" cx="19.551" cy="19.551" r="19.551" transform="translate(442.912 120.453)" fill="#a0616a"/>
        <path id="Path_277" data-name="Path 277" d="M1016.23,353.081l4.139,10.574c1.7,4.333,3.638,8.969,7.614,11.388,4.908,2.986,11.463,1.53,16.212-1.7a25.316,25.316,0,0,0-11.395-46.077l-.2,3.539-4.343-3.64a4.222,4.222,0,0,1-6.563.928c1.141,2.365-.176,5.249-2.077,7.061-2.336,2.225-9.017,4.9-8.74,8.878C1011.07,346.682,1015.16,350.329,1016.23,353.081Z" transform="translate(-570.407 -214.425)" fill="#2f2e41"/>
        <path id="Path_278" data-name="Path 278" d="M1086.69,534.525a8.278,8.278,0,0,0-3.547-12.188l.391-18.914-11.436-3.041-.177,26.718a8.323,8.323,0,0,0,14.769,7.425Z" transform="translate(-570.407 -214.425)" fill="#9f616a"/>
        <path id="Path_279" data-name="Path 279" d="M1047.39,386.064s-15.151-7.575-29.46-2.525-21.884,10.942-21.884,10.942L1005.3,443.3l-12.626,65.653s64.811-5.05,70.7,0,5.892-5.892,5.892-5.892l-5.05-62.286,9.259-39.56Z" transform="translate(-570.407 -214.425)" fill="#3f3d56"/>
        <path id="Path_280" data-name="Path 280" d="M983.447,535.645a8.279,8.279,0,0,0,.017-12.694l5.685-18.043-10.122-6.129-7.67,25.594a8.323,8.323,0,0,0,12.09,11.273Z" transform="translate(-570.407 -214.425)" fill="#9f616a"/>
        <path id="Path_281" data-name="Path 281" d="M1001.94,394.482h-5.892s-9.259,5.892-9.259,14.309-13.466,106.9-13.466,106.9l14.309,2.525,12.626-69.02,9.259-18.518Z" transform="translate(-570.407 -214.425)" fill="#3f3d56"/>
        <path id="Path_282" data-name="Path 282" d="M1057.49,401.215h15.992s5.05,5.05,7.575,16.834,5.05,58.078,5.05,58.078l-1.683,42.085H1071.8l-1.683-54.711L1061.7,428.15Z" transform="translate(-570.407 -214.425)" fill="#3f3d56"/>
        <path id="Path_283" data-name="Path 283" d="M316.181,457.229a8.535,8.535,0,0,0-1.159.679L277.58,443.272l-1.484-9.653-14.86.336L262.2,451.3a6.485,6.485,0,0,0,5.009,5.956l44.552,10.336a8.509,8.509,0,1,0,4.417-10.362Z" transform="translate(-114.519 -218.391)" fill="#9f616a"/>
        <path id="Path_284" data-name="Path 284" d="M151.465,460.884H161.4l4.727-38.331H151.463Z" fill="#9f616a"/>
        <path id="Path_285" data-name="Path 285" d="M257.43,672.065H277a12.473,12.473,0,0,1,12.472,12.471v.406H257.43Z" transform="translate(-108.5 -214.425)" fill="#2f2e41"/>
        <path id="Path_286" data-name="Path 286" d="M103.639,460.884h9.938l4.728-38.331H103.638Z" fill="#9f616a"/>
        <path id="Path_287" data-name="Path 287" d="M209.6,672.065h19.572a12.473,12.473,0,0,1,12.473,12.472v.405H209.605Z" transform="translate(-108.5 -214.425)" fill="#2f2e41"/>
        <path id="Path_288" data-name="Path 288" d="M217.9,383.059c-2.83-11.686-5.228-24.866.11-35.629,3.7-7.468,17.4-9.983,25.258-7.292s13.532,9.99,16.029,17.948,2.207,16.534,1.119,24.807C245.973,382.615,231.529,382.338,217.9,383.059Z" transform="translate(-108.5 -214.425)" fill="#2f2e41"/>
        <circle id="Ellipse_27" data-name="Ellipse 27" cx="16.843" cy="16.843" r="16.843" transform="translate(116.934 134.944)" fill="#9f616a"/>
        <path id="Path_289" data-name="Path 289" d="M221.686,362.743a21.156,21.156,0,1,1,42.286.557C249.555,363.331,235.139,363.362,221.686,362.743Z" transform="translate(-108.5 -214.425)" fill="#2f2e41"/>
        <path id="Path_290" data-name="Path 290" d="M228.3,445.2l-7.044,11.74s-19.292,36.182-18.144,66.173l4.269,37.356-4.685,9.167,3.136,16.129-5.824,11.554,10.529,55.778.448,12.1h17.025l-.9-12.32,7.168-54.339,12.1-58.018,6.272,50.083-2.24,12.544,2.912,10.529,4.032,32.481.448,15.681,15.457,1.792,5.824-58.018,3.36-27.682L264.433,455.181Z" transform="translate(-108.5 -214.425)" fill="#2f2e41"/>
        <path id="Path_291" data-name="Path 291" d="M226.064,388.509l-10.487,4.454-5.89,24.377,12.4,31.76-4.636,15.869c14.034,24.006,31.4,27.494,51.845,12.1-4.326-12.146-3.7-24.635.61-37.38,0,0,10.753-10.013,3.241-23.03l-7.165-19.448-8.871-4.435Z" transform="translate(-108.5 -214.425)" fill="#cbcbcb"/>
        <path id="Path_292" data-name="Path 292" d="M263.917,401.449l2.381-4.421s6.279.944,8.843,8.5,3.231,38.092,3.231,38.092l-13.434.68Z" transform="translate(-108.5 -214.425)" fill="#cbcbcb"/>
        <path id="Path_293" data-name="Path 293" d="M367.767,402.62l-19.991,13.921L190.048,526.38c-.911.635-1.84-.847-2.075-3.309s.313-4.973,1.225-5.608L366.917,393.7c.911-.635,1.84.847,2.075,3.309s-.314,4.973-1.225,5.608Z" transform="translate(-108.5 -236.853)" fill="#6c63ff"/>
        <path id="Path_294" data-name="Path 294" d="M211.289,505.081A8.708,8.708,0,0,0,214.4,492.1l6.512-63.665H206.842L201.667,490.6a8.755,8.755,0,0,0,9.621,14.484Z" transform="translate(-108.5 -214.425)" fill="#9f616a"/>
        <path id="Path_295" data-name="Path 295" d="M224.147,400.163l-4.932-6.972s-8.673-5.88-13.094,7.652-3.741,38.6-3.741,38.6l16.835,6.972Z" transform="translate(-108.5 -214.425)" fill="#cbcbcb"/>
        <path id="Path_296" data-name="Path 296" d="M490.5,685.575h-381a1,1,0,0,1,0-2h381a1,1,0,0,1,0,2Z" transform="translate(-108.5 -214.425)" fill="#cacaca"/>
        <path id="Path_297" data-name="Path 297" d="M1090.5,685.575h-381a1,1,0,0,1,0-2h381a1,1,0,0,1,0,2Z" transform="translate(-570.407 -214.425)" fill="#cacaca"/>
    </g>
    <text id="LetsTogether" transform="translate(8.239 120)" fill="#010101" font-size="111" font-family="SegoeUI, Segoe UI"><tspan x="0" y="0">Lets</tspan><tspan y="0" fill="#6f880b">T</tspan><tspan y="0">ogether</tspan></text>
</svg>
